# xmcd
#
# Track frame offsets:
# 150
# 18002
# 36524
# 46422
# 57699
# 67097
# 85911
# 96828
# 110403
# 124774
# 135618
# 147912
# 163787
# 176471
# 188410
# 199213
# 207855
# 218198
# 226926
# 244570
# 261266
# 271914
# 283409
# 297439
# 309911
# 320122
#
# Disc length: 4392 seconds
#
# Revision: 0
# Processed by: cddbd v1.4PL0 Copyright (c) Steve Scherf et al.
# Submitted via: Axialis_AX_CDPlayer 2.6
#
DISCID=9011261a
DTITLE=Various Artist - Truckin' On, CD 2
DYEAR=1900
DGENRE=
TTITLE0=Trucking on - Red Sovine
TTITLE1=Giddy up go answer - Minnie Pearl
TTITLE2=I'll have another cup of coffee - Claude Gray
TTITLE3=Truck driving man - Jimmy Martin
TTITLE4=Eight more miles to Louisville - Grandpa Jones
TTITLE5=White Knight - T. H. Music Festival
TTITLE6=Woman behind the man behind the wheels - Red sovine
TTITLE7=Endless black ribbon - Tiny Harris
TTITLE8=Away out on the mountain - Billy Walker
TTITLE9=Overloaded diesel - Billy griggs
TTITLE10=Burning bridges - Jack Scott
TTITLE11=Phantom 309 - Red Sovine
TTITLE12=Widdow maker - Jimmy Martin
TTITLE13=Diesel smoke on danger road - Wills Brothers
TTITLE14=Alabam - Cowboy Copas
TTITLE15=Truck dricving buddy - Frankie Miller
TTITLE16=Six days on the road
TTITLE17=Sneaking things acroos the border
TTITLE18=Convoy - T. H. Music Festival
TTITLE19=Pinball machine - Lonnie Irvikng
TTITLE20=Sitting in all night cafe - Warner Mack
TTITLE21=Country roads
TTITLE22=Honky tonk
TTITLE23=Freightliner fever - Red Sovine
TTITLE24=Truck driving son of a gun
TTITLE25=Truck driver's queen - Wills Brothers
EXTD=
EXTT0=
EXTT1=
EXTT2=
EXTT3=
EXTT4=
EXTT5=
EXTT6=
EXTT7=
EXTT8=
EXTT9=
EXTT10=
EXTT11=
EXTT12=
EXTT13=
EXTT14=
EXTT15=
EXTT16=
EXTT17=
EXTT18=
EXTT19=
EXTT20=
EXTT21=
EXTT22=
EXTT23=
EXTT24=
EXTT25=
PLAYORDER=
